<svg width="45" height="45" viewBox="0 0 45 45" fill="none" xmlns="http://www.w3.org/2000/svg">
<path d="M16.875 41.25C17.9105 41.25 18.75 40.4105 18.75 39.375C18.75 38.3395 17.9105 37.5 16.875 37.5C15.8395 37.5 15 38.3395 15 39.375C15 40.4105 15.8395 41.25 16.875 41.25Z" stroke="#FF3E3E" stroke-width="2" stroke-linecap="round" stroke-linejoin="round"/>
<path d="M37.5 41.25C38.5355 41.25 39.375 40.4105 39.375 39.375C39.375 38.3395 38.5355 37.5 37.5 37.5C36.4645 37.5 35.625 38.3395 35.625 39.375C35.625 40.4105 36.4645 41.25 37.5 41.25Z" stroke="#FF3E3E" stroke-width="2" stroke-linecap="round" stroke-linejoin="round"/>
<path d="M1.875 1.875H9.375L14.4 26.9812C14.5715 27.8445 15.0411 28.6199 15.7266 29.1718C16.4122 29.7237 17.2701 30.0169 18.15 30H36.375C37.2549 30.0169 38.1128 29.7237 38.7984 29.1718C39.4839 28.6199 39.9535 27.8445 40.125 26.9812L43.125 11.25H11.25" stroke="#FF3E3E" stroke-width="2" stroke-linecap="round" stroke-linejoin="round"/>
</svg>
