<svg width="14" height="19" viewBox="0 0 14 19" fill="none" xmlns="http://www.w3.org/2000/svg">
<path d="M7 19C5.73693 17.9226 4.56619 16.7415 3.5 15.469C1.9 13.558 8.83662e-07 10.712 8.83662e-07 7.99999C-0.00141728 5.16754 1.70425 2.61338 4.32107 1.52939C6.93789 0.445394 9.95007 1.04523 11.952 3.04899C13.2685 4.3596 14.0059 6.14238 14 7.99999C14 10.712 12.1 13.558 10.5 15.469C9.43382 16.7415 8.26307 17.9226 7 19ZM7 2.99999C4.23995 3.0033 2.00331 5.23994 2 7.99999C2 9.16599 2.527 11.185 5.035 14.186C5.65314 14.924 6.30902 15.6297 7 16.3C7.69105 15.6304 8.34724 14.9259 8.966 14.189C11.473 11.184 12 9.16499 12 7.99999C11.9967 5.23994 9.76006 3.0033 7 2.99999ZM7 11C5.34315 11 4 9.65684 4 7.99999C4 6.34313 5.34315 4.99999 7 4.99999C8.65686 4.99999 10 6.34313 10 7.99999C10 8.79564 9.68393 9.5587 9.12132 10.1213C8.55871 10.6839 7.79565 11 7 11Z" fill="#2E3A59"/>
</svg>
