<svg width="164" height="25" viewBox="0 0 164 25" fill="none" xmlns="http://www.w3.org/2000/svg">
<path fill-rule="evenodd" clip-rule="evenodd" d="M3.53035 0.396521C3.71938 0.146762 4.01451 0 4.32773 0H17.6387C17.9519 0 18.247 0.146762 18.436 0.396521L21.7577 4.78547C21.8885 4.95452 21.9664 5.16664 21.9664 5.39695V20.7863C21.9664 21.6375 21.6251 22.452 21.0205 23.0511C20.4162 23.6499 19.5986 23.9847 18.7479 23.9847H3.21849C2.3678 23.9847 1.55015 23.6499 0.945884 23.0511C0.341312 22.452 0 21.6375 0 20.7863V5.39695V5.39694C0 5.16662 0.0778676 4.95448 0.208713 4.78542L3.53035 0.396521ZM17.1414 2L18.9554 4.39694H3.01094L4.82501 2H17.1414ZM2 20.7863V6.39694H19.9664V20.7863C19.9664 21.1012 19.8402 21.405 19.6127 21.6305C19.3849 21.8563 19.074 21.9847 18.7479 21.9847H3.21849C2.89242 21.9847 2.5815 21.8563 2.35368 21.6305C2.12615 21.405 2 21.1012 2 20.7863ZM7.5462 9.79388C7.5462 9.2416 7.09849 8.79388 6.5462 8.79388C5.99392 8.79388 5.5462 9.2416 5.5462 9.79388C5.5462 11.2282 6.12125 12.6019 7.14187 13.6133C8.16218 14.6244 9.54411 15.1908 10.9832 15.1908C12.4222 15.1908 13.8042 14.6244 14.8245 13.6133C15.8451 12.6019 16.4202 11.2282 16.4202 9.79388C16.4202 9.2416 15.9724 8.79388 15.4202 8.79388C14.8679 8.79388 14.4202 9.2416 14.4202 9.79388C14.4202 10.6919 14.0603 11.5549 13.4167 12.1927C12.7728 12.8308 11.8976 13.1908 10.9832 13.1908C10.0687 13.1908 9.19353 12.8308 8.54966 12.1927C7.90609 11.5549 7.5462 10.6919 7.5462 9.79388Z" fill="#E83F5B"/>
<path d="M38.957 18.1348C38.4753 18.8249 37.8014 19.3424 36.9355 19.6875C36.0762 20.026 35.0736 20.1953 33.9277 20.1953C32.7689 20.1953 31.7402 19.9251 30.8418 19.3848C29.9434 18.8379 29.2467 18.0632 28.752 17.0605C28.2637 16.0579 28.013 14.8958 28 13.5742V12.334C28 10.1921 28.498 8.5319 29.4941 7.35352C30.4967 6.17513 31.903 5.58594 33.7129 5.58594C35.1973 5.58594 36.3919 5.9668 37.2969 6.72852C38.2018 7.48372 38.7552 8.55794 38.957 9.95117H37.082C36.7305 8.06966 35.6107 7.12891 33.7227 7.12891C32.4661 7.12891 31.5124 7.57161 30.8613 8.45703C30.2168 9.33594 29.8913 10.612 29.8848 12.2852V13.4473C29.8848 15.0423 30.2493 16.3118 30.9785 17.2559C31.7077 18.1934 32.694 18.6621 33.9375 18.6621C34.6406 18.6621 35.2559 18.584 35.7832 18.4277C36.3105 18.2715 36.7467 18.0078 37.0918 17.6367V14.4434H33.8008V12.9199H38.957V18.1348Z" fill="white"/>
<path d="M41.3301 14.6191C41.3301 13.584 41.5319 12.653 41.9355 11.8262C42.3457 10.9993 42.9121 10.3613 43.6348 9.91211C44.3639 9.46289 45.194 9.23828 46.125 9.23828C47.5638 9.23828 48.7259 9.73633 49.6113 10.7324C50.5033 11.7285 50.9492 13.0534 50.9492 14.707V14.834C50.9492 15.8626 50.7507 16.7871 50.3535 17.6074C49.9629 18.4212 49.3997 19.056 48.6641 19.5117C47.9349 19.9674 47.0951 20.1953 46.1445 20.1953C44.7122 20.1953 43.5501 19.6973 42.6582 18.7012C41.7728 17.7051 41.3301 16.3867 41.3301 14.7461V14.6191ZM43.1465 14.834C43.1465 16.0059 43.4167 16.9466 43.957 17.6562C44.5039 18.3659 45.2331 18.7207 46.1445 18.7207C47.0625 18.7207 47.7917 18.3626 48.332 17.6465C48.8724 16.9238 49.1426 15.9147 49.1426 14.6191C49.1426 13.4603 48.8659 12.5228 48.3125 11.8066C47.7656 11.084 47.0365 10.7227 46.125 10.7227C45.2331 10.7227 44.5137 11.0775 43.9668 11.7871C43.4199 12.4967 43.1465 13.5124 43.1465 14.834Z" fill="white"/>
<path d="M56.9453 5.78125L60.5977 16.0938L64.2305 5.78125H68.0781V20H65.1387V16.1133L65.4316 9.4043L61.5938 20H59.582L55.7539 9.41406L56.0469 16.1133V20H53.1172V5.78125H56.9453Z" fill="white"/>
<path d="M76.5742 20C76.444 19.7461 76.3496 19.4303 76.291 19.0527C75.6074 19.8145 74.7188 20.1953 73.625 20.1953C72.5898 20.1953 71.7305 19.8958 71.0469 19.2969C70.3698 18.6979 70.0312 17.9427 70.0312 17.0312C70.0312 15.9115 70.4447 15.0521 71.2715 14.4531C72.1048 13.8542 73.306 13.5514 74.875 13.5449H76.1738V12.9395C76.1738 12.4512 76.0469 12.0605 75.793 11.7676C75.5456 11.4746 75.1517 11.3281 74.6113 11.3281C74.1361 11.3281 73.7617 11.4421 73.4883 11.6699C73.2214 11.8978 73.0879 12.2103 73.0879 12.6074H70.2656C70.2656 11.9954 70.4544 11.429 70.832 10.9082C71.2096 10.3874 71.7435 9.98047 72.4336 9.6875C73.1237 9.38802 73.8984 9.23828 74.7578 9.23828C76.0599 9.23828 77.0918 9.56706 77.8535 10.2246C78.6217 10.8757 79.0059 11.7936 79.0059 12.9785V17.5586C79.0124 18.5612 79.1523 19.3197 79.4258 19.834V20H76.5742ZM74.2402 18.0371C74.6569 18.0371 75.041 17.946 75.3926 17.7637C75.7441 17.5749 76.0046 17.3242 76.1738 17.0117V15.1953H75.1191C73.7064 15.1953 72.9544 15.6836 72.8633 16.6602L72.8535 16.8262C72.8535 17.1777 72.9772 17.4674 73.2246 17.6953C73.472 17.9232 73.8105 18.0371 74.2402 18.0371Z" fill="white"/>
<path d="M87.1113 12.0801C86.7272 12.028 86.3887 12.002 86.0957 12.002C85.028 12.002 84.3281 12.3633 83.9961 13.0859V20H81.1738V9.43359H83.8398L83.918 10.6934C84.4844 9.72331 85.2689 9.23828 86.2715 9.23828C86.584 9.23828 86.877 9.2806 87.1504 9.36523L87.1113 12.0801Z" fill="white"/>
<path d="M92.3164 15.7617L91.3008 16.7773V20H88.4785V5H91.3008V13.3105L91.8477 12.6074L94.5527 9.43359H97.9414L94.123 13.8379L98.2734 20H95.0312L92.3164 15.7617Z" fill="white"/>
<path d="M103.83 20.1953C102.281 20.1953 101.018 19.7201 100.041 18.7695C99.071 17.819 98.5859 16.5527 98.5859 14.9707V14.6973C98.5859 13.6361 98.791 12.6888 99.2012 11.8555C99.6113 11.0156 100.191 10.3711 100.939 9.92188C101.695 9.46615 102.554 9.23828 103.518 9.23828C104.963 9.23828 106.099 9.69401 106.926 10.6055C107.759 11.5169 108.176 12.8092 108.176 14.4824V15.6348H101.447C101.538 16.3249 101.812 16.8783 102.268 17.2949C102.73 17.7116 103.312 17.9199 104.016 17.9199C105.103 17.9199 105.952 17.526 106.564 16.7383L107.951 18.291C107.528 18.89 106.955 19.3587 106.232 19.6973C105.51 20.0293 104.709 20.1953 103.83 20.1953ZM103.508 11.5234C102.948 11.5234 102.492 11.7122 102.141 12.0898C101.796 12.4674 101.574 13.0078 101.477 13.7109H105.402V13.4863C105.389 12.8613 105.22 12.3796 104.895 12.041C104.569 11.696 104.107 11.5234 103.508 11.5234Z" fill="white"/>
<path d="M113.166 6.83594V9.43359H114.973V11.5039H113.166V16.7773C113.166 17.168 113.241 17.4479 113.391 17.6172C113.54 17.7865 113.827 17.8711 114.25 17.8711C114.562 17.8711 114.839 17.8483 115.08 17.8027V19.9414C114.527 20.1107 113.957 20.1953 113.371 20.1953C111.392 20.1953 110.383 19.196 110.344 17.1973V11.5039H108.801V9.43359H110.344V6.83594H113.166Z" fill="white"/>
<path d="M126.057 14.8145C126.057 16.4421 125.686 17.7474 124.943 18.7305C124.208 19.707 123.212 20.1953 121.955 20.1953C120.887 20.1953 120.025 19.8242 119.367 19.082V24.0625H116.545V9.43359H119.162L119.26 10.4688C119.943 9.64844 120.835 9.23828 121.936 9.23828C123.238 9.23828 124.25 9.72005 124.973 10.6836C125.695 11.6471 126.057 12.9753 126.057 14.668V14.8145ZM123.234 14.6094C123.234 13.6263 123.059 12.8678 122.707 12.334C122.362 11.8001 121.857 11.5332 121.193 11.5332C120.308 11.5332 119.699 11.8717 119.367 12.5488V16.875C119.712 17.5716 120.327 17.9199 121.213 17.9199C122.561 17.9199 123.234 16.8164 123.234 14.6094Z" fill="white"/>
<path d="M130.793 20H127.961V5H130.793V20Z" fill="white"/>
<path d="M139.25 20C139.12 19.7461 139.025 19.4303 138.967 19.0527C138.283 19.8145 137.395 20.1953 136.301 20.1953C135.266 20.1953 134.406 19.8958 133.723 19.2969C133.046 18.6979 132.707 17.9427 132.707 17.0312C132.707 15.9115 133.12 15.0521 133.947 14.4531C134.781 13.8542 135.982 13.5514 137.551 13.5449H138.85V12.9395C138.85 12.4512 138.723 12.0605 138.469 11.7676C138.221 11.4746 137.827 11.3281 137.287 11.3281C136.812 11.3281 136.438 11.4421 136.164 11.6699C135.897 11.8978 135.764 12.2103 135.764 12.6074H132.941C132.941 11.9954 133.13 11.429 133.508 10.9082C133.885 10.3874 134.419 9.98047 135.109 9.6875C135.799 9.38802 136.574 9.23828 137.434 9.23828C138.736 9.23828 139.768 9.56706 140.529 10.2246C141.298 10.8757 141.682 11.7936 141.682 12.9785V17.5586C141.688 18.5612 141.828 19.3197 142.102 19.834V20H139.25ZM136.916 18.0371C137.333 18.0371 137.717 17.946 138.068 17.7637C138.42 17.5749 138.68 17.3242 138.85 17.0117V15.1953H137.795C136.382 15.1953 135.63 15.6836 135.539 16.6602L135.529 16.8262C135.529 17.1777 135.653 17.4674 135.9 17.6953C136.148 17.9232 136.486 18.0371 136.916 18.0371Z" fill="white"/>
<path d="M148.244 17.9199C148.765 17.9199 149.188 17.7767 149.514 17.4902C149.839 17.2038 150.008 16.8229 150.021 16.3477H152.668C152.661 17.0638 152.466 17.7214 152.082 18.3203C151.698 18.9128 151.171 19.375 150.5 19.707C149.836 20.0326 149.1 20.1953 148.293 20.1953C146.783 20.1953 145.591 19.7168 144.719 18.7598C143.846 17.7962 143.41 16.4681 143.41 14.7754V14.5898C143.41 12.9622 143.843 11.6634 144.709 10.6934C145.575 9.72331 146.763 9.23828 148.273 9.23828C149.595 9.23828 150.653 9.61589 151.447 10.3711C152.248 11.1198 152.655 12.1191 152.668 13.3691H150.021C150.008 12.8223 149.839 12.3796 149.514 12.041C149.188 11.696 148.758 11.5234 148.225 11.5234C147.567 11.5234 147.069 11.7643 146.73 12.2461C146.398 12.7214 146.232 13.4961 146.232 14.5703V14.8633C146.232 15.9505 146.398 16.7318 146.73 17.207C147.062 17.6823 147.567 17.9199 148.244 17.9199Z" fill="white"/>
<path d="M159.143 20.1953C157.593 20.1953 156.33 19.7201 155.354 18.7695C154.383 17.819 153.898 16.5527 153.898 14.9707V14.6973C153.898 13.6361 154.104 12.6888 154.514 11.8555C154.924 11.0156 155.503 10.3711 156.252 9.92188C157.007 9.46615 157.867 9.23828 158.83 9.23828C160.275 9.23828 161.411 9.69401 162.238 10.6055C163.072 11.5169 163.488 12.8092 163.488 14.4824V15.6348H156.76C156.851 16.3249 157.124 16.8783 157.58 17.2949C158.042 17.7116 158.625 17.9199 159.328 17.9199C160.415 17.9199 161.265 17.526 161.877 16.7383L163.264 18.291C162.84 18.89 162.268 19.3587 161.545 19.6973C160.822 20.0293 160.021 20.1953 159.143 20.1953ZM158.82 11.5234C158.26 11.5234 157.805 11.7122 157.453 12.0898C157.108 12.4674 156.887 13.0078 156.789 13.7109H160.715V13.4863C160.702 12.8613 160.533 12.3796 160.207 12.041C159.882 11.696 159.419 11.5234 158.82 11.5234Z" fill="white"/>
</svg>
