<svg width="130" height="64" viewBox="0 0 130 64" fill="none" xmlns="http://www.w3.org/2000/svg">
<path opacity="0.66" d="M11.9221 36.224H15.6021V38H9.68213V26.832H11.9221V36.224ZM20.9619 38.144C20.1085 38.144 19.3405 37.9573 18.6579 37.584C17.9752 37.2 17.4365 36.6613 17.0419 35.968C16.6579 35.2747 16.4659 34.4747 16.4659 33.568C16.4659 32.6613 16.6632 31.8613 17.0579 31.168C17.4632 30.4747 18.0125 29.9413 18.7059 29.568C19.3992 29.184 20.1725 28.992 21.0259 28.992C21.8792 28.992 22.6525 29.184 23.3459 29.568C24.0392 29.9413 24.5832 30.4747 24.9779 31.168C25.3832 31.8613 25.5859 32.6613 25.5859 33.568C25.5859 34.4747 25.3779 35.2747 24.9619 35.968C24.5565 36.6613 24.0019 37.2 23.2979 37.584C22.6045 37.9573 21.8259 38.144 20.9619 38.144ZM20.9619 36.192C21.3672 36.192 21.7459 36.096 22.0979 35.904C22.4605 35.7013 22.7485 35.4027 22.9619 35.008C23.1752 34.6133 23.2819 34.1333 23.2819 33.568C23.2819 32.7253 23.0579 32.08 22.6099 31.632C22.1725 31.1733 21.6339 30.944 20.9939 30.944C20.3539 30.944 19.8152 31.1733 19.3779 31.632C18.9512 32.08 18.7379 32.7253 18.7379 33.568C18.7379 34.4107 18.9459 35.0613 19.3619 35.52C19.7885 35.968 20.3219 36.192 20.9619 36.192ZM30.701 28.992C31.3623 28.992 31.9437 29.1253 32.445 29.392C32.9463 29.648 33.341 29.984 33.629 30.4V29.136H35.885V38.064C35.885 38.8853 35.7197 39.616 35.389 40.256C35.0583 40.9067 34.5623 41.4187 33.901 41.792C33.2397 42.176 32.4397 42.368 31.501 42.368C30.2423 42.368 29.2077 42.0747 28.397 41.488C27.597 40.9013 27.1437 40.1013 27.037 39.088H29.261C29.3783 39.4933 29.629 39.8133 30.013 40.048C30.4077 40.2933 30.8823 40.416 31.437 40.416C32.0877 40.416 32.6157 40.2187 33.021 39.824C33.4263 39.44 33.629 38.8533 33.629 38.064V36.688C33.341 37.104 32.941 37.4507 32.429 37.728C31.9277 38.0053 31.3517 38.144 30.701 38.144C29.9543 38.144 29.2717 37.952 28.653 37.568C28.0343 37.184 27.5437 36.6453 27.181 35.952C26.829 35.248 26.653 34.4427 26.653 33.536C26.653 32.64 26.829 31.8453 27.181 31.152C27.5437 30.4587 28.029 29.9253 28.637 29.552C29.2557 29.1787 29.9437 28.992 30.701 28.992ZM33.629 33.568C33.629 33.024 33.5223 32.56 33.309 32.176C33.0957 31.7813 32.8077 31.4827 32.445 31.28C32.0823 31.0667 31.693 30.96 31.277 30.96C30.861 30.96 30.477 31.0613 30.125 31.264C29.773 31.4667 29.485 31.7653 29.261 32.16C29.0477 32.544 28.941 33.0027 28.941 33.536C28.941 34.0693 29.0477 34.5387 29.261 34.944C29.485 35.3387 29.773 35.6427 30.125 35.856C30.4877 36.0693 30.8717 36.176 31.277 36.176C31.693 36.176 32.0823 36.0747 32.445 35.872C32.8077 35.6587 33.0957 35.36 33.309 34.976C33.5223 34.5813 33.629 34.112 33.629 33.568ZM39.2088 28.08C38.8141 28.08 38.4834 27.9573 38.2168 27.712C37.9608 27.456 37.8328 27.1413 37.8328 26.768C37.8328 26.3947 37.9608 26.0853 38.2168 25.84C38.4834 25.584 38.8141 25.456 39.2088 25.456C39.6034 25.456 39.9288 25.584 40.1848 25.84C40.4514 26.0853 40.5848 26.3947 40.5848 26.768C40.5848 27.1413 40.4514 27.456 40.1848 27.712C39.9288 27.9573 39.6034 28.08 39.2088 28.08ZM40.3128 29.136V38H38.0728V29.136H40.3128ZM47.4379 29.008C48.4939 29.008 49.3472 29.344 49.9979 30.016C50.6485 30.6773 50.9739 31.6053 50.9739 32.8V38H48.7339V33.104C48.7339 32.4 48.5579 31.8613 48.2059 31.488C47.8539 31.104 47.3739 30.912 46.7659 30.912C46.1472 30.912 45.6565 31.104 45.2939 31.488C44.9419 31.8613 44.7659 32.4 44.7659 33.104V38H42.5259V29.136H44.7659V30.24C45.0645 29.856 45.4432 29.5573 45.9019 29.344C46.3712 29.12 46.8832 29.008 47.4379 29.008Z" fill="white"/>
<ellipse cx="97.4767" cy="32" rx="32.5234" ry="32" fill="#EBEBF0"/>
<path d="M97.4758 40.2061C102.665 40.2061 107.204 42.3278 109.673 45.4934L107.062 46.6667C105.053 44.4036 101.51 42.9003 97.4758 42.9003C93.4413 42.9003 89.8986 44.4036 87.8892 46.6667L85.2803 45.4921C87.7489 42.3264 92.2864 40.2061 97.4758 40.2061ZM97.4758 17.3334C99.355 17.3334 101.157 18.043 102.486 19.3061C103.815 20.5692 104.561 22.2824 104.561 24.0687V30.7766C104.561 32.5123 103.856 34.1809 102.593 35.4345C101.331 36.6881 99.6075 37.4299 97.7833 37.5053L97.4758 37.512C95.5966 37.512 93.7944 36.8024 92.4656 35.5393C91.1368 34.2761 90.3903 32.563 90.3903 30.7766V24.0687C90.3904 22.3331 91.0954 20.6645 92.3582 19.4109C93.621 18.1573 95.3442 17.4154 97.1683 17.3401L97.4758 17.3334ZM97.4758 20.0275C96.3914 20.0275 95.348 20.4213 94.5591 21.1285C93.7701 21.8356 93.2952 22.8026 93.2316 23.8317L93.2245 24.0687V30.7766C93.2235 31.8286 93.6539 32.8394 94.4245 33.5945C95.195 34.3495 96.2449 34.7891 97.3511 34.82C98.4572 34.8509 99.5324 34.4705 100.348 33.7598C101.164 33.049 101.656 32.0639 101.72 31.0137L101.727 30.7766V24.0687C101.727 22.9969 101.279 21.969 100.482 21.2112C99.6847 20.4533 98.6033 20.0275 97.4758 20.0275Z" fill="#7A7A80"/>
</svg>
