<svg width="19" height="19" viewBox="0 0 19 19" fill="none" xmlns="http://www.w3.org/2000/svg">
<path d="M9.89705 18.968C9.36603 18.9696 8.85647 18.7586 8.48205 18.382L0.648054 10.547C0.234643 10.1348 0.0226645 9.56207 0.0680544 8.98001L0.568054 2.41401C0.639353 1.4264 1.42625 0.641631 2.41405 0.573012L8.98005 0.0730117C9.03105 0.0620117 9.08305 0.0620117 9.13405 0.0620117C9.6639 0.063372 10.1718 0.273991 10.5471 0.648012L18.3821 8.48201C18.7573 8.85711 18.9681 9.36594 18.9681 9.89651C18.9681 10.4271 18.7573 10.9359 18.3821 11.311L11.3111 18.382C10.9369 18.7583 10.4277 18.9693 9.89705 18.968ZM9.13305 2.06201L2.56205 2.56201L2.06205 9.13301L9.89705 16.968L16.9671 9.89801L9.13305 2.06201ZM5.65405 7.65402C4.69989 7.65422 3.87847 6.98037 3.69213 6.04458C3.5058 5.10879 4.00646 4.17169 4.88792 3.80639C5.76939 3.44109 6.78615 3.74933 7.31638 4.54259C7.84662 5.33586 7.74265 6.39322 7.06805 7.06801C6.69388 7.44433 6.18473 7.65534 5.65405 7.65402Z" fill="#2E3A59"/>
</svg>
